<svg xmlns="http://www.w3.org/2000/svg" xmlns:xlink="http://www.w3.org/1999/xlink" width="1024" zoomAndPan="magnify" viewBox="0 0 768 767.999994" height="1024" preserveAspectRatio="xMidYMid meet" version="1.0"><defs><clipPath id="9d9a71f269"><path d="M 18.851562 18.851562 L 745.664062 18.851562 L 745.664062 745.664062 L 18.851562 745.664062 Z M 18.851562 18.851562 " clip-rule="nonzero"/></clipPath><clipPath id="c4646c4329"><path d="M 382.257812 18.851562 C 181.554688 18.851562 18.851562 181.554688 18.851562 382.257812 C 18.851562 582.960938 181.554688 745.664062 382.257812 745.664062 C 582.960938 745.664062 745.664062 582.960938 745.664062 382.257812 C 745.664062 181.554688 582.960938 18.851562 382.257812 18.851562 Z M 382.257812 18.851562 " clip-rule="nonzero"/></clipPath><clipPath id="2ba11be29a"><path d="M 372 104.53125 L 394 104.53125 L 394 154 L 372 154 Z M 372 104.53125 " clip-rule="nonzero"/></clipPath><clipPath id="6adc4dc8cf"><path d="M 372 614 L 394 614 L 394 663.28125 L 372 663.28125 Z M 372 614 " clip-rule="nonzero"/></clipPath></defs><g clip-path="url(#9d9a71f269)"><g clip-path="url(#c4646c4329)"><path fill="#f9a912" d="M 18.851562 18.851562 L 745.664062 18.851562 L 745.664062 745.664062 L 18.851562 745.664062 Z M 18.851562 18.851562 " fill-opacity="1" fill-rule="nonzero"/></g></g><path fill="#ffffff" d="M 559.328125 330.320312 L 517.125 330.320312 C 506.792969 330.320312 498.398438 321.925781 498.398438 311.597656 L 498.398438 297.824219 C 498.398438 287.492188 506.792969 279.097656 517.125 279.097656 L 559.328125 279.097656 C 569.660156 279.097656 578.054688 287.492188 578.054688 297.824219 L 578.054688 311.597656 C 578.082031 321.925781 569.660156 330.320312 559.328125 330.320312 Z M 519.003906 309.746094 L 557.507812 309.746094 L 557.507812 299.671875 L 519.003906 299.671875 Z M 519.003906 309.746094 " fill-opacity="1" fill-rule="nonzero"/><path fill="#ffffff" d="M 577.03125 249.242188 L 477.480469 249.242188 L 464.703125 205.957031 C 461.375 194.746094 449.992188 186.890625 436.984375 186.890625 L 330.890625 186.890625 C 317.886719 186.890625 306.472656 194.71875 303.171875 205.957031 L 290.394531 249.214844 L 263.929688 249.214844 L 263.929688 233.222656 C 263.929688 223.773438 256.246094 216.117188 246.824219 216.117188 L 205.304688 216.117188 C 195.855469 216.117188 188.199219 223.800781 188.199219 233.222656 L 188.199219 249.472656 C 165.148438 250.921875 146.792969 269.90625 146.792969 293.296875 L 146.792969 536.929688 C 146.792969 561.234375 166.542969 580.984375 190.847656 580.984375 L 577.03125 580.984375 C 601.332031 580.984375 621.082031 561.234375 621.082031 536.929688 L 621.082031 293.296875 C 621.082031 268.992188 601.332031 249.242188 577.03125 249.242188 Z M 322.921875 211.792969 C 323.550781 209.65625 326.707031 207.464844 330.921875 207.464844 L 436.984375 207.464844 C 441.199219 207.464844 444.355469 209.65625 444.980469 211.765625 L 456.023438 249.214844 L 311.882812 249.214844 Z M 208.746094 236.722656 L 243.355469 236.722656 L 243.355469 249.242188 L 208.746094 249.242188 Z M 190.847656 269.820312 L 577.03125 269.820312 C 589.980469 269.820312 600.507812 280.347656 600.507812 293.296875 L 600.507812 339.171875 L 482.605469 339.171875 C 460.007812 308.152344 423.496094 287.890625 382.257812 287.890625 C 341.023438 287.890625 304.539062 308.152344 281.914062 339.171875 L 167.371094 339.171875 L 167.371094 293.296875 C 167.371094 280.347656 177.898438 269.820312 190.847656 269.820312 Z M 382.289062 308.464844 C 439.433594 308.464844 485.933594 354.96875 485.933594 412.113281 C 485.933594 469.257812 439.433594 515.757812 382.289062 515.757812 C 325.144531 515.757812 278.640625 469.257812 278.640625 412.113281 C 278.640625 354.96875 325.144531 308.464844 382.289062 308.464844 Z M 577.03125 560.410156 L 190.847656 560.410156 C 177.898438 560.410156 167.371094 549.878906 167.371094 536.929688 L 167.371094 359.75 L 269.792969 359.75 C 262.335938 375.683594 258.066406 393.386719 258.066406 412.113281 C 258.066406 480.613281 313.789062 536.332031 382.289062 536.332031 C 450.789062 536.332031 506.507812 480.613281 506.507812 412.113281 C 506.507812 393.386719 502.242188 375.683594 494.785156 359.75 L 600.507812 359.75 L 600.507812 536.929688 C 600.507812 549.878906 589.980469 560.410156 577.03125 560.410156 Z M 577.03125 560.410156 " fill-opacity="1" fill-rule="nonzero"/><path fill="#ffffff" d="M 412.539062 216.542969 L 355.339844 216.542969 C 349.644531 216.542969 345.035156 221.15625 345.035156 226.847656 C 345.035156 232.539062 349.644531 237.148438 355.339844 237.148438 L 412.566406 237.148438 C 418.257812 237.148438 422.871094 232.539062 422.871094 226.847656 C 422.871094 221.15625 418.230469 216.542969 412.539062 216.542969 Z M 412.539062 216.542969 " fill-opacity="1" fill-rule="nonzero"/><path fill="#ffffff" d="M 382.289062 506.792969 C 330.066406 506.792969 287.605469 464.304688 287.605469 412.113281 C 287.605469 359.890625 330.09375 317.429688 382.289062 317.429688 C 434.507812 317.429688 476.96875 359.917969 476.96875 412.113281 C 476.96875 464.304688 434.480469 506.792969 382.289062 506.792969 Z M 382.289062 338.003906 C 341.421875 338.003906 308.183594 371.246094 308.183594 412.113281 C 308.183594 452.976562 341.421875 486.21875 382.289062 486.21875 C 423.15625 486.21875 456.394531 452.976562 456.394531 412.113281 C 456.394531 371.246094 423.15625 338.003906 382.289062 338.003906 Z M 382.289062 338.003906 " fill-opacity="1" fill-rule="nonzero"/><path fill="#ffffff" d="M 323.207031 422.386719 C 317.515625 422.386719 312.90625 417.773438 312.90625 412.082031 C 312.90625 373.835938 344.011719 342.730469 382.257812 342.730469 C 387.953125 342.730469 392.5625 347.339844 392.5625 353.03125 C 392.5625 358.722656 387.953125 363.332031 382.257812 363.332031 C 355.367188 363.332031 333.480469 385.21875 333.480469 412.113281 C 333.480469 417.773438 328.898438 422.386719 323.207031 422.386719 Z M 323.207031 422.386719 " fill-opacity="1" fill-rule="nonzero"/><path fill="#ffffff" d="M 207.667969 545.210938 C 191.84375 545.210938 178.980469 532.347656 178.980469 516.527344 C 178.980469 500.703125 191.84375 487.839844 207.667969 487.839844 C 223.488281 487.839844 236.351562 500.703125 236.351562 516.527344 C 236.351562 532.347656 223.488281 545.210938 207.667969 545.210938 Z M 207.667969 508.414062 C 203.199219 508.414062 199.554688 512.058594 199.554688 516.527344 C 199.554688 520.996094 203.199219 524.636719 207.667969 524.636719 C 212.132812 524.636719 215.777344 520.996094 215.777344 516.527344 C 215.777344 512.058594 212.132812 508.414062 207.667969 508.414062 Z M 207.667969 508.414062 " fill-opacity="1" fill-rule="nonzero"/><g clip-path="url(#2ba11be29a)"><path fill="#ffffff" d="M 382.800781 153.707031 C 377.109375 153.707031 372.5 149.097656 372.5 143.40625 L 372.5 114.832031 C 372.5 109.140625 377.109375 104.53125 382.800781 104.53125 C 388.492188 104.53125 393.101562 109.140625 393.101562 114.832031 L 393.101562 143.433594 C 393.074219 149.097656 388.464844 153.707031 382.800781 153.707031 Z M 382.800781 153.707031 " fill-opacity="1" fill-rule="nonzero"/></g><path fill="#ffffff" d="M 332.316406 169.390625 C 329.667969 169.390625 327.050781 168.394531 325.03125 166.371094 L 304.824219 146.167969 C 300.8125 142.152344 300.8125 135.636719 304.824219 131.625 C 308.835938 127.613281 315.355469 127.613281 319.367188 131.625 L 339.570312 151.828125 C 343.585938 155.84375 343.585938 162.359375 339.570312 166.371094 C 337.578125 168.394531 334.933594 169.390625 332.316406 169.390625 Z M 332.316406 169.390625 " fill-opacity="1" fill-rule="nonzero"/><path fill="#ffffff" d="M 435.5625 169.390625 C 432.914062 169.390625 430.296875 168.394531 428.277344 166.371094 C 424.265625 162.359375 424.265625 155.84375 428.277344 151.828125 L 448.484375 131.625 C 452.496094 127.613281 459.011719 127.613281 463.023438 131.625 C 467.039062 135.636719 467.039062 142.152344 463.023438 146.167969 L 442.820312 166.371094 C 440.828125 168.394531 438.210938 169.390625 435.5625 169.390625 Z M 435.5625 169.390625 " fill-opacity="1" fill-rule="nonzero"/><g clip-path="url(#6adc4dc8cf)"><path fill="#ffffff" d="M 382.800781 663.34375 C 377.109375 663.34375 372.5 658.734375 372.5 653.042969 L 372.5 624.46875 C 372.5 618.777344 377.109375 614.167969 382.800781 614.167969 C 388.492188 614.167969 393.101562 618.777344 393.101562 624.46875 L 393.101562 653.070312 C 393.074219 658.761719 388.464844 663.34375 382.800781 663.34375 Z M 382.800781 663.34375 " fill-opacity="1" fill-rule="nonzero"/></g><path fill="#ffffff" d="M 312.082031 639.296875 C 309.433594 639.296875 306.816406 638.300781 304.796875 636.28125 C 300.78125 632.265625 300.78125 625.75 304.796875 621.738281 L 325 601.53125 C 329.015625 597.519531 335.53125 597.519531 339.542969 601.53125 C 343.554688 605.542969 343.554688 612.0625 339.542969 616.074219 L 319.335938 636.28125 C 317.347656 638.273438 314.726562 639.296875 312.082031 639.296875 Z M 312.082031 639.296875 " fill-opacity="1" fill-rule="nonzero"/><path fill="#ffffff" d="M 455.796875 639.296875 C 453.148438 639.296875 450.53125 638.300781 448.511719 636.28125 L 428.304688 616.074219 C 424.292969 612.0625 424.292969 605.542969 428.304688 601.53125 C 432.316406 597.519531 438.835938 597.519531 442.847656 601.53125 L 463.054688 621.738281 C 467.066406 625.75 467.066406 632.265625 463.054688 636.28125 C 461.0625 638.273438 458.414062 639.296875 455.796875 639.296875 Z M 455.796875 639.296875 " fill-opacity="1" fill-rule="nonzero"/></svg>